<svg version="1.2" xmlns="http://www.w3.org/2000/svg" viewBox="0 0 512 141" width="512" height="141">
	<title>scroll (1)-svg</title>
	<style>
		.s0 { fill: #e09b2d } 
		.s1 { fill: #e54728 } 
		.s2 { fill: #f7b239 } 
		.s3 { fill: #f95428 } 
		.s4 { fill: #b27214 } 
	</style>
	<path id="Layer" class="s0" d="m196.1 140.9c-64.9 0-145.6 0-152 0c-24.3 0-44.1-19.7-44.1-44.1v-45.4c0-24.4 19.8-44.1 44.1-44.1c12.2 0 23.2 4.9 31.2 12.9c8 8 12.9 19 12.9 31.2v45.4c0 7.3-1.8 14.1-4.9 20.2c43.7 10.6 103.3 19.6 112.8 23.9z" />
	<path id="Layer" class="s1" d="m196.1 136.1h63.9v52.1h-63.9z" />
	<path id="Layer" class="s2" d="m512 51.4v45.4c0 24.4-19.7 44.1-44.1 44.1h-235.7h-36.1h-13.1h-102.8c-6.4 0-12.5-1.3-18-3.8c15.3-6.9 26-22.3 26-40.3v-45.4c0-12.2-4.9-23.2-12.9-31.2c-8-8-19-12.9-31.2-12.9h138.9h49.2h235.7c24.3 0 44.1 19.7 44.1 44.1z" />
	<path id="Layer" class="s0" d="m334.5 51.4v45.4c0 24.4-19.7 44.1-44.1 44.1h-4.1h-32h-27.7c24.3 0 44.1-19.7 44.1-44.1v-45.4c0-24.4-19.8-44.1-44.1-44.1h63.8c24.4 0 44.1 19.7 44.1 44.1z" />
	<path id="Layer" class="s3" d="m340.2 51.4v45.4c0 24.4-19.7 44.1-44.1 44.1h-4.2h-31.9h-27.8c24.4 0 44.1-19.7 44.1-44.1v-45.4c0-24.4-19.7-44.1-44.1-44.1h63.9c24.4 0 44.1 19.7 44.1 44.1z" />
	<path id="Layer" class="s4" d="m36.1 96.8h52.1c0 18-10.7 33.4-26 40.3c-15.4-6.9-26.1-22.3-26.1-40.3z" />
	<g id="Layer">
	</g>
	<g id="Layer">
	</g>
	<g id="Layer">
	</g>
	<g id="Layer">
	</g>
	<g id="Layer">
	</g>
	<g id="Layer">
	</g>
	<g id="Layer">
	</g>
	<g id="Layer">
	</g>
	<g id="Layer">
	</g>
	<g id="Layer">
	</g>
	<g id="Layer">
	</g>
	<g id="Layer">
	</g>
	<g id="Layer">
	</g>
	<g id="Layer">
	</g>
	<g id="Layer">
	</g>
</svg>